<svg version="1" xmlns="http://www.w3.org/2000/svg" width="19.875" height="21.916" viewBox="0 0 19.875 21.916"><path d="M17.04 2h-2.08V0h-2v2H6.916V0h-2v2h-2.08C1.275 2 0 3.275 0 4.835V19.08c0 1.56 1.275 2.836 2.835 2.836H17.04c1.56 0 2.835-1.275 2.835-2.835V4.837C19.875 3.276 18.6 2 17.04 2zm.835 17.08c0 .454-.383.836-.835.836H2.835c-.452 0-.835-.382-.835-.835V4.837C2 4.382 2.383 4 2.835 4H17.04c.452 0 .835.382.835.835V19.08z"/><path d="M4.917 6.958h2v2h-2zm8.043 0h2v2h-2zm-4.022 0h2v2h-2zm-4.02 4h2v2h-2zm8.042 0h2v2h-2zm-4.022 0h2v2h-2zm-4.02 3.984h2v2h-2zm8.042 0h2v2h-2zm-4.022 0h2v2h-2z"/></svg>
