<svg xmlns="http://www.w3.org/2000/svg" viewBox="0 0 445 416.6" fill="#81b3d2"><g fill-rule="evenodd" clip-rule="evenodd"><path d="M221 0c107.5 1.9 204.1 70.7 204 186-1.8 1.3-1.7 2-4 3-4.6 3.9-19 2-27 2H124c-32.7 0-72.9 3.9-102-2-1.8-6.3-2.1-15.9-2-25 3-4.4 1.3-12.1 3-18 3.7-11 7.3-22 11-33 10.5-24.2 37.5-56.5 58-71 3.8-2.7 8.2-3.5 12-6 7.2-4.8 14.7-11.4 23-15 17.9-7.9 37.4-13.1 58-18 6.3-1.5 31 .1 36-3z"/><path fill="#FFF" d="M39 172c28 1.1 58-2.2 86 1 12.9 1.5 26.4-2.3 39 0 4-.3 8-.7 12-1 14.6 0 34.4-1.5 48 1 5.3-.3 10.7-.7 16-1 13.6.4 30.3-1.6 44 1 5.6 1 14.4-1 20 0 6.7-.3 13.3-.7 20-1 6.8 1.4 20.7.4 28 0 12.6-.7 23.1 1.4 35 1 5.4-.2 13.5-1.1 19 0v-5c-2-3.3-1-9.3-1-12 0-.9-2.7-5-3-6-3.3-10-2.6-18.1-7-27-17.4-35.3-44.3-60.9-77-81-22.9-14.1-87.3-29.9-124-20-7.7 1-15.3 2-23 3-52.8 19.1-82.3 36.4-110 81-11.2 18-20.2 38.2-22 66z"/><path d="M172 53c3.3-.1 7.2-.2 9 1 4.3 1.2 6.6 2.6 7 8 1 2-.2 3.9-1 7-4.3 2.5-8.4 3.1-16 3-3.7-4.5-6.1-3.9-6-13 .8-1 .4-.3 1-2 1.8-1.1 4.4-2.6 6-4zm99 0c3.3-.1 7.2-.2 9 1 3 .9 4.8 2.3 6 5 1.1 1.7 1.1 4.9 1 8-5 3.8-7.1 5.2-17 5-2-2.3-3.6-1.8-5-5-2.3-3-1.4-4.4-1-9 2.2-1.4 5-3.2 7-5zm-49 31c8.1-.3 14.4 1.7 15 9 1 2-.2 3.9-1 7-4.4 2.6-9.1 3.1-17 3-1.5-2.1-2.8-2.5-4-5-1.8-2.7-.7-7.1 0-10 1.8-1 1.7-1.3 4-2 .8-.7 2.2-1.3 3-2zM82 203c8.7 1.8 30.4 23.1 35 30l1-1c10.1-6.7 21.3-26 34-28 1.7 1.1 5.2.8 7 2 2.4 1.5 3.2 4.7 5 7 6.2 7.8 16.7 12.2 22 21l1-1c10.3-9.7 20.7-19.3 31-29h7c5.1 5.6 25.8 26.9 32 29 7.4-11.2 19.9-18.4 29-28 12.3.4 32.7 21.8 38 30l1-1c10.9-7.3 22.2-28.7 38-29 8.3 11 22.1 17.8 30 29l1-1c12.8-6.7 18.1-26.6 36-27 1.6 1.6 3.6 2.2 5 4 1.5 1.9 1.8 3.6 2 7-8.2 9.7-32.1 39.9-47 40-4.7-5.3-26.3-27-32-29-4.4 6.8-25.7 28.5-35 29-.9-.6-3.1-1.3-4-2-5.5-1.9-25.8-22.7-29-28l-1 1c-11.4 7.7-19.7 27.8-37 28-5.9-6.7-24.1-26.2-32-29-7.6 11.5-20.6 19.1-30 29-3-.3-6-.7-9-1l-29-29-1 1-20 20c-4 3-7.7 5.4-11 9-18.4-1.4-22.6-23.8-38-29-3.9 5.9-27.1 27.9-35 29-11.3-10.1-22.5-18-32-30-4.3-5.4-9.6-3.8-10-14-1.2-1.6-.6-.5 0-2 .8-3.4.9-3.8 4-5 1.8-1.2 5.7-1.1 9-1 8.7 9.2 23.1 17.6 29 29h2c7.8-11.9 21.7-21.4 33-30zm343 148c.3 40-19.3 58.1-52 65-3.7-.3-7.3-.7-11-1-12.8 1.5-26-.5-39 0-18.2.6-39.2 3.3-57 0-6.7.3-13.3.7-20 1-4.4-.9-11.2.6-18 0-19.3-1.7-42.4 2.7-62-1-5.7.3-11.3.7-17 1-11.2-.6-24 0-36 0-4-.3-8-.7-12-1-12.6 2.3-38.7 1.6-48-4-19.8-12-33.2-26.7-33-59-16.8-4.3-20-17.3-20-39 0-7.8-.3-15 2-21 3.5-9.1 12.8-13.5 23-16 5-1.2 12.5.6 16 1 4-.3 8-.7 12-1 9.9 0 23.4 1.8 32 0 6.7.3 13.3.7 20 1 9.4-1.8 25.6-1.8 35 0 5.6 1.1 14.4-1.1 20 0 2.3-.3 4.7-.7 7-1 6 .3 12 .7 18 1 3-.6 9.4-1.6 14-1 5.8.8 20.4 1.2 26 0 13.8-2.9 28.3 2.4 40 0 19.2-4 42.5 3.6 60 0 19.2-4 42.5 3.7 60 0 6.2-1.3 13.2 1.2 18 1 23.5-.8 36 1.1 42 21v15c0 20-3.1 35.5-20 38z"/><path fill="#FFF" d="M24 295c-6.1 6.3-5.3 10.5-5 23-1.5 2.3-.4 3.8 0 6 2 11.8 10.2 10.8 24 10 3.4 1.7 13.5-1.1 20 0 24 4.2 53.8-4.6 80 0 3.8.7 19.2.7 23 0 6.7-1.2 14.8 1.7 20 1 11.7-1.6 25.3-1.8 37 0 4.8.7 14.9-.8 20 0s13.3-2.2 20-1c18.1 3.2 39.4-3.6 60 0 11.5 2 26-2.4 40 0 12.2 2.1 45.7 1.5 59-1 1.1-1.8 2.5-3.6 4-5 .3-12.9 1.3-22.9-3-32-45.2-3.1-95.1-1-142-1H24zm15 58c-.9 19.9 9 35.3 24 42 7.8 3.5 20 2 30 2h226c22.1 0 54.5 3.9 69-5 13.2-8.1 15.6-20.5 19-39H39z"/></g></svg>