<svg version="1" xmlns="http://www.w3.org/2000/svg" width="187.663" height="44.918" viewBox="0 0 187.663 44.918" fill="#81b3d2"><path d="M27.712 0h7.708l-1.21 44.918H19.685L17.71 26.373l-1.975 18.545H1.145L0 0h7.645l.637 37.152h.828L13.888 0h7.58l4.906 37.152h.765L27.71 0zm31.85 37.152v7.766H38.668V0h20.896v7.7h-13.25v10.844h10.574v7.7H46.312v10.908h13.25zm21.34 0v7.766H62.62V0h7.644v37.152h10.638zm16.244-8.79l7.708-1.797V40.17c0 2.566-2.166 4.748-4.714 4.748H88.672c-2.612 0-4.714-2.182-4.714-4.75V4.75c0-2.63 2.102-4.75 4.714-4.75h11.467c2.546 0 4.712 2.117 4.712 4.75v9.11l-7.708 1.797V7.7H91.6v29.452h5.544v-8.79zM125.62 0c2.547 0 4.713 2.117 4.713 4.75v35.42c0 2.566-2.166 4.748-4.714 4.748h-11.47c-2.61 0-4.714-2.182-4.714-4.75V4.75c0-2.63 2.103-4.748 4.714-4.748h11.47zm-2.995 7.7h-5.543v29.452h5.543V7.7zm32.74-7.7h7.58v44.918h-7.643V22.844l-3.058 11.422h-7.454l-2.994-11.422v22.074h-7.645V0h7.583l6.816 21.688L155.365 0zm32.298 37.152v7.766h-20.896V0h20.896v7.7h-13.25v10.844h10.574v7.7h-10.575v10.908h13.25z"/></svg>