<?xml version="1.0" encoding="utf-8"?>
<!-- Generator: Adobe Illustrator 18.0.0, SVG Export Plug-In . SVG Version: 6.00 Build 0)  -->
<!DOCTYPE svg PUBLIC "-//W3C//DTD SVG 1.1//EN" "http://www.w3.org/Graphics/SVG/1.1/DTD/svg11.dtd">
<svg version="1.1" id="Слой_1" xmlns="http://www.w3.org/2000/svg" xmlns:xlink="http://www.w3.org/1999/xlink" x="0px" y="0px"
	 viewBox="0 0 445 416.6" enable-background="new 0 0 445 416.6" xml:space="preserve" fill="#81b3d2">
<g>
<path fill-rule="evenodd" clip-rule="evenodd" d="M221,0c107.5,1.9,204.1,70.7,204,186c-1.8,1.3-1.7,2-4,3
	c-4.6,3.9-19,2-27,2c-24,0-48,0-72,0c-66,0-132,0-198,0c-32.7,0-72.9,3.9-102-2c-1.8-6.3-2.1-15.9-2-25c3-4.4,1.3-12.1,3-18
	c3.7-11,7.3-22,11-33c10.5-24.2,37.5-56.5,58-71c3.8-2.7,8.2-3.5,12-6c7.2-4.8,14.7-11.4,23-15c17.9-7.9,37.4-13.1,58-18
	C191.3,1.5,216,3.1,221,0z"/>
<path fill-rule="evenodd" clip-rule="evenodd" fill="#FFFFFF" d="M39,172c28,1.1,58-2.2,86,1c12.9,1.5,26.4-2.3,39,0
	c4-0.3,8-0.7,12-1c14.6,0,34.4-1.5,48,1c5.3-0.3,10.7-0.7,16-1c13.6,0.4,30.3-1.6,44,1c5.6,1,14.4-1,20,0c6.7-0.3,13.3-0.7,20-1
	c6.8,1.4,20.7,0.4,28,0c12.6-0.7,23.1,1.4,35,1c5.4-0.2,13.5-1.1,19,0c0-1.7,0-3.3,0-5c-2-3.3-1-9.3-1-12c0-0.9-2.7-5-3-6
	c-3.3-10-2.6-18.1-7-27c-17.4-35.3-44.3-60.9-77-81c-22.9-14.1-87.3-29.9-124-20c-7.7,1-15.3,2-23,3c-52.8,19.1-82.3,36.4-110,81
	C49.8,124,40.8,144.2,39,172z"/>
<path fill-rule="evenodd" clip-rule="evenodd" d="M172,53c3.3-0.1,7.2-0.2,9,1c4.3,1.2,6.6,2.6,7,8c1,2-0.2,3.9-1,7
	c-4.3,2.5-8.4,3.1-16,3c-3.7-4.5-6.1-3.9-6-13c0.8-1,0.4-0.3,1-2C167.8,55.9,170.4,54.4,172,53z"/>
<path fill-rule="evenodd" clip-rule="evenodd" d="M271,53c3.3-0.1,7.2-0.2,9,1c3,0.9,4.8,2.3,6,5
	c1.1,1.7,1.1,4.9,1,8c-5,3.8-7.1,5.2-17,5c-2-2.3-3.6-1.8-5-5c-2.3-3-1.4-4.4-1-9C266.2,56.6,269,54.8,271,53z"/>
<path fill-rule="evenodd" clip-rule="evenodd" d="M222,84c8.1-0.3,14.4,1.7,15,9c1,2-0.2,3.9-1,7
	c-4.4,2.6-9.1,3.1-17,3c-1.5-2.1-2.8-2.5-4-5c-1.8-2.7-0.7-7.1,0-10c1.8-1,1.7-1.3,4-2C219.8,85.3,221.2,84.7,222,84z"/>
<path fill-rule="evenodd" clip-rule="evenodd" d="M82,203c8.7,1.8,30.4,23.1,35,30c0.3-0.3,0.7-0.7,1-1
	c10.1-6.7,21.3-26,34-28c1.7,1.1,5.2,0.8,7,2c2.4,1.5,3.2,4.7,5,7c6.2,7.8,16.7,12.2,22,21c0.3-0.3,0.7-0.7,1-1
	c10.3-9.7,20.7-19.3,31-29c2.3,0,4.7,0,7,0c5.1,5.6,25.8,26.9,32,29c7.4-11.2,19.9-18.4,29-28c12.3,0.4,32.7,21.8,38,30
	c0.3-0.3,0.7-0.7,1-1c10.9-7.3,22.2-28.7,38-29c8.3,11,22.1,17.8,30,29c0.3-0.3,0.7-0.7,1-1c12.8-6.7,18.1-26.6,36-27
	c1.6,1.6,3.6,2.2,5,4c1.5,1.9,1.8,3.6,2,7c-8.2,9.7-32.1,39.9-47,40c-4.7-5.3-26.3-27-32-29c-4.4,6.8-25.7,28.5-35,29
	c-0.9-0.6-3.1-1.3-4-2c-5.5-1.9-25.8-22.7-29-28c-0.3,0.3-0.7,0.7-1,1c-11.4,7.7-19.7,27.8-37,28c-5.9-6.7-24.1-26.2-32-29
	c-7.6,11.5-20.6,19.1-30,29c-3-0.3-6-0.7-9-1c-9.7-9.7-19.3-19.3-29-29c-0.3,0.3-0.7,0.7-1,1c-6.7,6.7-13.3,13.3-20,20
	c-4,3-7.7,5.4-11,9c-18.4-1.4-22.6-23.8-38-29c-3.9,5.9-27.1,27.9-35,29c-11.3-10.1-22.5-18-32-30c-4.3-5.4-9.6-3.8-10-14
	c-1.2-1.6-0.6-0.5,0-2c0.8-3.4,0.9-3.8,4-5c1.8-1.2,5.7-1.1,9-1c8.7,9.2,23.1,17.6,29,29c0.7,0,1.3,0,2,0
	C56.8,221.1,70.7,211.6,82,203z"/>
<path fill-rule="evenodd" clip-rule="evenodd" d="M425,351c0.3,40-19.3,58.1-52,65c-3.7-0.3-7.3-0.7-11-1
	c-12.8,1.5-26-0.5-39,0c-18.2,0.6-39.2,3.3-57,0c-6.7,0.3-13.3,0.7-20,1c-4.4-0.9-11.2,0.6-18,0c-19.3-1.7-42.4,2.7-62-1
	c-5.7,0.3-11.3,0.7-17,1c-11.2-0.6-24,0-36,0c-4-0.3-8-0.7-12-1c-12.6,2.3-38.7,1.6-48-4c-19.8-12-33.2-26.7-33-59
	c-16.8-4.3-20-17.3-20-39c0-7.8-0.3-15,2-21c3.5-9.1,12.8-13.5,23-16c5-1.2,12.5,0.6,16,1c4-0.3,8-0.7,12-1c9.9,0,23.4,1.8,32,0
	c6.7,0.3,13.3,0.7,20,1c9.4-1.8,25.6-1.8,35,0c5.6,1.1,14.4-1.1,20,0c2.3-0.3,4.7-0.7,7-1c6,0.3,12,0.7,18,1c3-0.6,9.4-1.6,14-1
	c5.8,0.8,20.4,1.2,26,0c13.8-2.9,28.3,2.4,40,0c19.2-4,42.5,3.6,60,0c19.2-4,42.5,3.7,60,0c6.2-1.3,13.2,1.2,18,1
	c23.5-0.8,36,1.1,42,21c0,5,0,10,0,15C445,333,441.9,348.5,425,351z"/>
<path fill-rule="evenodd" clip-rule="evenodd" fill="#FFFFFF" d="M24,295c-6.1,6.3-5.3,10.5-5,23c-1.5,2.3-0.4,3.8,0,6
	c2,11.8,10.2,10.8,24,10c3.4,1.7,13.5-1.1,20,0c24,4.2,53.8-4.6,80,0c3.8,0.7,19.2,0.7,23,0c6.7-1.2,14.8,1.7,20,1
	c11.7-1.6,25.3-1.8,37,0c4.8,0.7,14.9-0.8,20,0c5.1,0.8,13.3-2.2,20-1c18.1,3.2,39.4-3.6,60,0c11.5,2,26-2.4,40,0
	c12.2,2.1,45.7,1.5,59-1c1.1-1.8,2.5-3.6,4-5c0.3-12.9,1.3-22.9-3-32c-45.2-3.1-95.1-1-142-1C195.4,295,109.7,295,24,295z"/>
<path fill-rule="evenodd" clip-rule="evenodd" fill="#FFFFFF" d="M39,353c-0.9,19.9,9,35.3,24,42c7.8,3.5,20,2,30,2
	c20.7,0,41.3,0,62,0c54.7,0,109.3,0,164,0c22.1,0,54.5,3.9,69-5c13.2-8.1,15.6-20.5,19-39C284.4,353,161.7,353,39,353z"/>
  </g>
</svg>
